<?xml version="1.0" standalone="no"?>
<!DOCTYPE svg PUBLIC "-//W3C//DTD SVG 20010904//EN"
 "http://www.w3.org/TR/2001/REC-SVG-20010904/DTD/svg10.dtd">
<svg version="1.0" xmlns="http://www.w3.org/2000/svg"
 width="512.000000pt" height="512.000000pt" viewBox="0 0 512.000000 512.000000"
 preserveAspectRatio="xMidYMid meet">

<g transform="translate(0.000000,512.000000) scale(0.100000,-0.100000)"
fill="#28c78f" stroke="none">
<path d="M1998 5004 c-15 -8 -32 -23 -38 -34 -6 -12 -10 -148 -10 -365 l0
-347 29 -29 c31 -31 83 -39 122 -19 46 25 49 48 49 406 l0 336 -34 34 c-38 38
-73 43 -118 18z"/>
<path d="M1062 4685 c-39 -33 -48 -74 -27 -118 22 -48 443 -463 475 -469 35
-6 83 8 104 31 10 11 20 38 23 61 l6 42 -239 239 c-225 225 -242 239 -276 239
-24 0 -46 -8 -66 -25z"/>
<path d="M2915 4691 c-16 -10 -126 -115 -242 -233 -208 -209 -213 -215 -213
-255 0 -77 69 -127 135 -98 16 7 130 114 253 237 220 222 222 224 222 267 0
84 -83 127 -155 82z"/>
<path d="M3925 4596 c-27 -7 -68 -21 -90 -31 -28 -12 -330 -308 -1002 -979
-529 -528 -964 -958 -967 -956 -2 3 -38 65 -80 138 -163 284 -242 397 -347
498 -117 110 -269 198 -452 259 -136 45 -218 58 -340 53 -144 -6 -173 -21
-319 -167 l-118 -118 0 -48 0 -49 295 -296 294 -295 221 -659 c121 -363 220
-662 220 -665 0 -13 822 -829 889 -883 88 -70 201 -129 308 -160 67 -20 101
-23 233 -23 147 1 160 3 250 33 198 66 187 57 883 751 729 727 692 681 692
861 0 93 -3 112 -27 162 -49 106 -139 180 -251 208 -45 12 -45 12 -35 43 5 18
9 66 9 107 1 175 -109 319 -274 362 l-48 12 8 41 c15 73 7 176 -17 240 -30 78
-122 173 -195 199 -27 11 -52 21 -54 23 -3 2 160 169 362 371 429 430 422 420
422 587 0 91 -3 106 -31 165 -54 115 -159 197 -283 220 -66 12 -92 12 -156 -4z
m181 -221 c50 -29 80 -75 90 -132 14 -87 17 -83 -502 -603 -275 -276 -488
-498 -494 -514 -15 -41 -4 -81 32 -111 42 -35 82 -33 145 11 128 88 276 34
307 -113 13 -60 -10 -109 -94 -199 -44 -46 -82 -95 -86 -109 -9 -36 3 -73 33
-101 39 -36 85 -32 149 12 137 95 304 17 304 -141 0 -65 -19 -102 -90 -170
-99 -96 -115 -151 -61 -206 42 -42 91 -40 155 6 84 59 169 57 243 -8 64 -56
81 -143 44 -215 -11 -21 -291 -308 -633 -648 -609 -608 -614 -612 -698 -653
-161 -78 -324 -90 -486 -36 -145 49 -170 69 -621 519 l-423 420 -221 665 -221
666 -265 266 -264 265 64 61 c75 72 112 82 236 65 212 -30 447 -145 577 -283
63 -68 195 -267 309 -469 48 -85 99 -174 112 -197 29 -51 48 -63 105 -63 l43
0 1010 1009 c555 555 1019 1014 1030 1020 38 20 124 13 171 -14z"/>
</g>
</svg>
