<?xml version="1.0" standalone="no"?>
<!DOCTYPE svg PUBLIC "-//W3C//DTD SVG 20010904//EN"
 "http://www.w3.org/TR/2001/REC-SVG-20010904/DTD/svg10.dtd">
<svg version="1.0" xmlns="http://www.w3.org/2000/svg"
 width="200.000000pt" height="200.000000pt" viewBox="0 0 200.000000 200.000000"
 preserveAspectRatio="xMidYMid meet">

<g transform="translate(0.000000,200.000000) scale(0.100000,-0.100000)"
fill="#28c78f" stroke="none">
<path d="M883 1955 c-100 -43 -95 -202 7 -242 35 -14 40 -20 40 -48 0 -32 -2
-33 -66 -49 -122 -31 -254 -103 -346 -190 -43 -40 -49 -77 -17 -100 27 -19 44
-12 94 34 87 83 216 146 345 170 36 7 71 17 78 23 14 11 17 204 3 226 -5 8
-31 17 -57 20 -54 7 -76 29 -54 55 11 14 35 16 164 14 l151 -3 0 -30 c0 -28
-2 -30 -45 -33 -72 -5 -80 -19 -80 -133 0 -112 6 -124 72 -134 99 -15 212 -60
295 -116 23 -16 48 -29 55 -29 8 0 36 23 63 51 58 59 78 71 99 63 30 -11 17
-48 -35 -100 -62 -63 -65 -85 -15 -150 140 -183 176 -454 89 -674 -65 -163
-191 -300 -347 -375 -274 -132 -568 -86 -801 125 -59 53 -65 56 -96 40 -67
-36 51 -164 238 -259 112 -56 202 -75 348 -75 139 0 205 13 319 61 183 77 355
252 429 435 94 236 68 530 -66 734 l-33 50 38 43 c21 24 42 58 47 77 18 66
-21 143 -85 164 -53 18 -96 5 -151 -44 l-49 -44 -86 43 c-47 23 -117 51 -157
61 -69 18 -71 19 -71 49 0 26 5 33 35 43 56 21 85 64 85 126 0 59 -21 96 -70
121 -40 21 -320 21 -367 0z"/>
<path d="M930 1415 c-100 -25 -196 -76 -267 -143 -38 -36 -41 -54 -13 -82 28
-28 43 -25 95 20 271 234 692 111 797 -233 27 -90 22 -234 -11 -316 -101 -252
-382 -381 -629 -289 -61 22 -147 75 -177 108 -23 25 -57 26 -78 2 -27 -29 -20
-47 34 -96 94 -85 255 -146 384 -146 137 0 310 70 407 163 116 111 176 239
185 394 7 119 -8 196 -59 302 -74 154 -220 272 -393 316 -72 18 -200 18 -275
0z"/>
<path d="M142 1128 c-17 -17 -15 -54 4 -72 13 -13 46 -16 200 -16 109 0 193 4
205 10 22 12 26 59 7 78 -17 17 -399 17 -416 0z"/>
<path d="M1215 1059 l-73 -70 -39 10 c-50 14 -103 0 -147 -39 -45 -40 -60 -79
-54 -141 9 -87 65 -140 155 -147 48 -3 64 0 92 20 68 46 95 109 79 182 -9 38
-8 40 62 111 73 76 83 100 52 128 -31 28 -51 20 -127 -54z m-103 -176 c22 -20
23 -70 1 -95 -36 -40 -113 -8 -113 49 0 55 70 85 112 46z"/>
<path d="M268 889 c-22 -12 -23 -52 -2 -73 13 -13 46 -16 208 -16 136 0 195 3
204 12 15 15 15 61 0 76 -15 15 -384 16 -410 1z"/>
<path d="M146 644 c-19 -18 -21 -55 -4 -72 17 -17 399 -17 416 0 19 19 15 66
-7 78 -12 6 -96 10 -205 10 -154 0 -187 -3 -200 -16z"/>
</g>
</svg>
