<?xml version="1.0" standalone="no"?>
<!DOCTYPE svg PUBLIC "-//W3C//DTD SVG 20010904//EN"
 "http://www.w3.org/TR/2001/REC-SVG-20010904/DTD/svg10.dtd">
<svg version="1.0" xmlns="http://www.w3.org/2000/svg"
 width="512.000000pt" height="512.000000pt" viewBox="0 0 512.000000 512.000000"
 preserveAspectRatio="xMidYMid meet">

<g transform="translate(0.000000,512.000000) scale(0.100000,-0.100000)"
fill="#28c78f" stroke="none">
<path d="M2335 5110 c-336 -34 -623 -116 -914 -261 -277 -138 -474 -282 -696
-510 -207 -213 -341 -404 -471 -673 -296 -614 -333 -1345 -99 -1982 92 -251
266 -555 433 -754 884 -1058 2421 -1235 3521 -407 119 90 318 282 423 407 167
199 341 503 433 754 234 637 197 1368 -99 1982 -130 269 -264 460 -471 673
-227 233 -422 375 -710 516 -254 125 -507 203 -785 241 -131 18 -446 26 -565
14z m446 -370 c414 -42 796 -197 1142 -463 42 -33 77 -62 76 -66 0 -3 -496
-487 -1100 -1076 -605 -588 -1312 -1277 -1571 -1529 l-472 -459 -29 34 c-50
59 -182 264 -229 356 -295 574 -322 1260 -74 1855 284 679 883 1169 1612 1317
193 39 442 51 645 31z m1520 -842 c117 -147 243 -370 318 -562 52 -133 105
-337 127 -491 23 -160 23 -440 0 -599 -114 -796 -636 -1460 -1381 -1756 -394
-157 -853 -192 -1285 -99 -310 68 -671 243 -913 443 l-67 56 192 189 193 189
3 -279 2 -279 444 0 443 0 7 -46 c3 -26 6 -81 6 -123 l0 -76 170 0 170 0 0
120 0 121 103 12 c297 35 528 140 707 321 188 190 270 410 270 723 0 319 -122
610 -351 836 -78 78 -235 184 -265 180 -13 -2 -186 -164 -418 -392 l-396 -388
0 -354 0 -354 -431 0 c-237 0 -429 4 -427 8 2 4 181 181 398 392 639 621 1505
1466 1925 1877 214 210 396 382 402 382 7 1 31 -23 54 -51z m-1435 -1623 c255
-49 404 -221 404 -469 0 -201 -94 -362 -254 -437 -69 -32 -178 -59 -243 -59
l-43 0 0 490 0 490 29 0 c16 0 64 -7 107 -15z"/>
<path d="M2390 4548 c0 -40 -3 -90 -6 -110 l-7 -38 -61 0 c-87 0 -218 -17
-311 -41 -182 -46 -327 -129 -442 -253 -111 -119 -182 -260 -224 -445 -27
-114 -37 -395 -19 -524 32 -240 127 -435 281 -583 82 -77 138 -115 251 -169
l92 -44 125 122 c70 66 246 238 394 381 l267 261 0 357 0 358 365 0 365 0 -2
288 -3 287 -362 3 -363 2 0 110 0 110 -170 0 -170 0 0 -72z m-10 -1219 l0
-491 -67 7 c-254 27 -414 154 -458 362 -49 232 28 434 206 535 73 42 190 75
277 77 l42 1 0 -491z"/>
</g>
</svg>
